<svg xmlns="http://www.w3.org/2000/svg" viewBox="0 0 470.007 470.007"><path d="M467.81 386.49L332.23 250.913c-2.93-2.928-7.677-2.928-10.606 0-2.93 2.93-2.93 7.678 0 10.607L451.9 391.794l-24.75 24.75-59.564-59.566c-2.93-2.93-7.678-2.93-10.607 0-2.93 2.93-2.93 7.677 0 10.606l59.564 59.565-24.75 24.75L261.52 321.623c-2.93-2.928-7.678-2.928-10.607 0-2.93 2.93-2.93 7.678 0 10.607l135.58 135.58c1.464 1.464 3.384 2.196 5.303 2.196s3.84-.732 5.304-2.196l70.71-70.71c2.93-2.93 2.93-7.68 0-10.61zM21.16 60.374l.033.077 28.87 70.113c.352.854.863 1.63 1.497 2.3.03.032.058.066.09.098l.045.052 86.08 86.082c1.466 1.464 3.385 2.196 5.305 2.196s3.84-.732 5.304-2.196c2.93-2.93 2.93-7.678 0-10.607l-78.192-78.19c3.443-2.02 6.652-4.49 9.528-7.365 5.88-5.88 9.974-13.012 12.034-20.57l81.378 81.378c1.465 1.464 3.385 2.196 5.304 2.196s3.84-.732 5.304-2.196c2.93-2.93 2.93-7.678 0-10.607l-81.38-81.38c7.558-2.06 14.69-6.154 20.57-12.034 2.876-2.877 5.347-6.085 7.365-9.528l78.192 78.19c2.93 2.93 7.68 2.928 10.607 0 2.93-2.93 2.93-7.677 0-10.606l-86.082-86.08c-.014-.015-.03-.026-.042-.04-.07-.066-.142-.13-.214-.193-.645-.588-1.383-1.065-2.192-1.4L60.44 21.19c-.018-.01-.037-.018-.056-.025L10.356.565c-2.8-1.15-6.018-.508-8.16 1.632-2.14 2.142-2.783 5.36-1.63 8.16L21.16 60.373zm65.42 17.522c-2.407-.423-4.873.354-6.6 2.083-1.73 1.728-2.508 4.192-2.085 6.6 1.587 9.034-1.696 18.657-8.784 25.744-2.365 2.367-5.053 4.32-7.94 5.816L36.963 59.355l22.392-22.39 58.784 24.204c-1.496 2.888-3.45 5.575-5.816 7.94-7.087 7.09-16.713 10.372-25.743 8.786zM44.33 30.776L30.776 44.328l-9.487-23.04 23.038 9.488z"/><path d="M286.268 296.875l35.355 35.355c1.465 1.464 3.385 2.196 5.304 2.196s3.84-.732 5.304-2.196c2.93-2.93 2.93-7.678 0-10.607l-35.354-35.355c-2.93-2.928-7.678-2.928-10.607 0-2.93 2.93-2.93 7.678-.002 10.607zM418.358 132.96c.03-.03.06-.064.09-.098.633-.67 1.144-1.445 1.495-2.3L448.81 60.46l.04-.093 20.593-50.012c1.152-2.8.51-6.018-1.632-8.16-2.14-2.14-5.357-2.782-8.158-1.63L409.63 21.16l-.072.03-70.115 28.87c-.81.334-1.547.812-2.192 1.4-.07.063-.144.127-.213.193-.013.014-.028.024-.042.038L2.197 386.49C.79 387.9 0 389.807 0 391.796s.79 3.896 2.196 5.304l70.71 70.71c1.408 1.406 3.315 2.196 5.305 2.196s3.897-.79 5.305-2.196l334.797-334.798.046-.05zm-17.463-20.637c-7.088-7.087-10.37-16.71-8.784-25.743.424-2.408-.353-4.872-2.083-6.602-1.73-1.73-4.192-2.505-6.602-2.083-9.027 1.593-18.654-1.696-25.742-8.784-2.366-2.364-4.32-5.053-5.816-7.94l58.784-24.206 22.393 22.39-24.206 58.786c-2.888-1.496-5.576-3.45-7.942-5.817zm38.336-67.995l-13.55-13.553 23.038-9.486-9.487 23.038zM78.21 451.9l-24.748-24.748 100.514-100.515c2.93-2.93 2.93-7.678 0-10.607-2.93-2.928-7.678-2.928-10.607 0L42.854 416.544l-24.75-24.75L339.713 70.192c2.018 3.445 4.49 6.653 7.364 9.53 5.88 5.88 13.012 9.975 20.57 12.034l-195.992 195.99c-2.93 2.93-2.93 7.68 0 10.608 1.465 1.464 3.384 2.196 5.304 2.196 1.92 0 3.84-.732 5.304-2.196l195.992-195.99c2.06 7.557 6.155 14.688 12.034 20.568 2.876 2.876 6.084 5.346 9.528 7.364L78.21 451.9z"/></svg>